<mxfile host="app.diagrams.net" modified="2024-02-20T20:00:16.726Z" agent="Mozilla/5.0 (X11; Linux x86_64) AppleWebKit/537.36 (KHTML, like Gecko) Chrome/121.0.0.0 Safari/537.36" etag="qU6yhRBv3Mg2iQY_mWta" version="23.1.5" type="github">
  <diagram name="Page-1" id="2YBvvXClWsGukQMizWep">
    <mxGraphModel dx="941" dy="523" grid="1" gridSize="10" guides="1" tooltips="1" connect="1" arrows="1" fold="1" page="1" pageScale="1" pageWidth="850" pageHeight="1100" math="0" shadow="0">
      <root>
        <mxCell id="0" />
        <mxCell id="1" parent="0" />
        <mxCell id="MCohfSdGYtcVFteW_mZE-78" style="edgeStyle=orthogonalEdgeStyle;rounded=0;orthogonalLoop=1;jettySize=auto;html=1;exitX=1;exitY=0.5;exitDx=0;exitDy=0;entryX=0;entryY=0.5;entryDx=0;entryDy=0;fontSize=16;fontStyle=1" parent="1" source="MCohfSdGYtcVFteW_mZE-2" target="MCohfSdGYtcVFteW_mZE-4" edge="1">
          <mxGeometry relative="1" as="geometry" />
        </mxCell>
        <mxCell id="MCohfSdGYtcVFteW_mZE-2" value="" style="triangle;whiteSpace=wrap;html=1;rotation=90;fontSize=16;fontStyle=1" parent="1" vertex="1">
          <mxGeometry x="-12" y="275" width="60" height="30" as="geometry" />
        </mxCell>
        <mxCell id="MCohfSdGYtcVFteW_mZE-27" style="edgeStyle=orthogonalEdgeStyle;rounded=0;orthogonalLoop=1;jettySize=auto;html=1;exitX=1;exitY=0.5;exitDx=0;exitDy=0;entryX=0;entryY=0.5;entryDx=0;entryDy=0;fontSize=16;fontStyle=1" parent="1" source="MCohfSdGYtcVFteW_mZE-4" target="MCohfSdGYtcVFteW_mZE-12" edge="1">
          <mxGeometry relative="1" as="geometry">
            <mxPoint x="96" y="390" as="targetPoint" />
            <Array as="points">
              <mxPoint x="109" y="362" />
              <mxPoint x="109" y="455" />
            </Array>
          </mxGeometry>
        </mxCell>
        <mxCell id="MCohfSdGYtcVFteW_mZE-75" style="edgeStyle=orthogonalEdgeStyle;rounded=0;orthogonalLoop=1;jettySize=auto;html=1;exitX=1;exitY=0.5;exitDx=0;exitDy=0;entryX=0;entryY=0.5;entryDx=0;entryDy=0;fontSize=16;fontStyle=1" parent="1" source="MCohfSdGYtcVFteW_mZE-4" target="MCohfSdGYtcVFteW_mZE-6" edge="1">
          <mxGeometry relative="1" as="geometry">
            <Array as="points">
              <mxPoint x="109" y="362" />
              <mxPoint x="109" y="270" />
            </Array>
          </mxGeometry>
        </mxCell>
        <mxCell id="MCohfSdGYtcVFteW_mZE-4" value="&lt;font style=&quot;font-size: 16px;&quot;&gt;LNA&lt;/font&gt;" style="triangle;whiteSpace=wrap;html=1;align=left;fontSize=16;fontStyle=1" parent="1" vertex="1">
          <mxGeometry x="38" y="332" width="60" height="60" as="geometry" />
        </mxCell>
        <mxCell id="MCohfSdGYtcVFteW_mZE-10" value="" style="group;fontSize=16;fontStyle=1" parent="1" vertex="1" connectable="0">
          <mxGeometry x="134" y="255" width="30" height="30" as="geometry" />
        </mxCell>
        <mxCell id="MCohfSdGYtcVFteW_mZE-6" value="" style="ellipse;whiteSpace=wrap;html=1;aspect=fixed;fontSize=16;fontStyle=1" parent="MCohfSdGYtcVFteW_mZE-10" vertex="1">
          <mxGeometry width="30" height="30" as="geometry" />
        </mxCell>
        <mxCell id="MCohfSdGYtcVFteW_mZE-8" style="edgeStyle=none;rounded=0;orthogonalLoop=1;jettySize=auto;html=1;exitX=0;exitY=0;exitDx=0;exitDy=0;entryX=1;entryY=1;entryDx=0;entryDy=0;endArrow=none;endFill=0;fontSize=16;fontStyle=1" parent="MCohfSdGYtcVFteW_mZE-10" source="MCohfSdGYtcVFteW_mZE-6" target="MCohfSdGYtcVFteW_mZE-6" edge="1">
          <mxGeometry relative="1" as="geometry" />
        </mxCell>
        <mxCell id="MCohfSdGYtcVFteW_mZE-9" style="edgeStyle=none;rounded=0;orthogonalLoop=1;jettySize=auto;html=1;exitX=1;exitY=0;exitDx=0;exitDy=0;entryX=0;entryY=1;entryDx=0;entryDy=0;endArrow=none;endFill=0;fontSize=16;fontStyle=1" parent="MCohfSdGYtcVFteW_mZE-10" source="MCohfSdGYtcVFteW_mZE-6" target="MCohfSdGYtcVFteW_mZE-6" edge="1">
          <mxGeometry relative="1" as="geometry" />
        </mxCell>
        <mxCell id="MCohfSdGYtcVFteW_mZE-11" value="" style="group;fontSize=16;fontStyle=1" parent="1" vertex="1" connectable="0">
          <mxGeometry x="134" y="440" width="30" height="30" as="geometry" />
        </mxCell>
        <mxCell id="MCohfSdGYtcVFteW_mZE-12" value="" style="ellipse;whiteSpace=wrap;html=1;aspect=fixed;fontSize=16;fontStyle=1" parent="MCohfSdGYtcVFteW_mZE-11" vertex="1">
          <mxGeometry width="30" height="30" as="geometry" />
        </mxCell>
        <mxCell id="MCohfSdGYtcVFteW_mZE-13" style="edgeStyle=none;rounded=0;orthogonalLoop=1;jettySize=auto;html=1;exitX=0;exitY=0;exitDx=0;exitDy=0;entryX=1;entryY=1;entryDx=0;entryDy=0;endArrow=none;endFill=0;fontSize=16;fontStyle=1" parent="MCohfSdGYtcVFteW_mZE-11" source="MCohfSdGYtcVFteW_mZE-12" target="MCohfSdGYtcVFteW_mZE-12" edge="1">
          <mxGeometry relative="1" as="geometry" />
        </mxCell>
        <mxCell id="MCohfSdGYtcVFteW_mZE-14" style="edgeStyle=none;rounded=0;orthogonalLoop=1;jettySize=auto;html=1;exitX=1;exitY=0;exitDx=0;exitDy=0;entryX=0;entryY=1;entryDx=0;entryDy=0;endArrow=none;endFill=0;fontSize=16;fontStyle=1" parent="MCohfSdGYtcVFteW_mZE-11" source="MCohfSdGYtcVFteW_mZE-12" target="MCohfSdGYtcVFteW_mZE-12" edge="1">
          <mxGeometry relative="1" as="geometry" />
        </mxCell>
        <mxCell id="MCohfSdGYtcVFteW_mZE-25" style="edgeStyle=none;rounded=0;orthogonalLoop=1;jettySize=auto;html=1;exitX=0.5;exitY=1;exitDx=0;exitDy=0;entryX=0.5;entryY=0;entryDx=0;entryDy=0;fontSize=16;fontStyle=1" parent="1" source="MCohfSdGYtcVFteW_mZE-15" target="MCohfSdGYtcVFteW_mZE-12" edge="1">
          <mxGeometry relative="1" as="geometry" />
        </mxCell>
        <mxCell id="MCohfSdGYtcVFteW_mZE-15" value="Shift 90" style="rounded=1;whiteSpace=wrap;html=1;fontSize=16;fontStyle=1" parent="1" vertex="1">
          <mxGeometry x="119" y="380" width="60" height="30" as="geometry" />
        </mxCell>
        <mxCell id="MCohfSdGYtcVFteW_mZE-22" style="edgeStyle=none;rounded=0;orthogonalLoop=1;jettySize=auto;html=1;exitX=0.5;exitY=0;exitDx=0;exitDy=0;entryX=0.5;entryY=1;entryDx=0;entryDy=0;fontSize=16;fontStyle=1" parent="1" source="MCohfSdGYtcVFteW_mZE-16" target="MCohfSdGYtcVFteW_mZE-6" edge="1">
          <mxGeometry relative="1" as="geometry" />
        </mxCell>
        <mxCell id="MCohfSdGYtcVFteW_mZE-26" style="edgeStyle=none;rounded=0;orthogonalLoop=1;jettySize=auto;html=1;exitX=0.5;exitY=1;exitDx=0;exitDy=0;entryX=0.5;entryY=0;entryDx=0;entryDy=0;fontSize=16;fontStyle=1" parent="1" source="MCohfSdGYtcVFteW_mZE-16" target="MCohfSdGYtcVFteW_mZE-15" edge="1">
          <mxGeometry relative="1" as="geometry" />
        </mxCell>
        <mxCell id="MCohfSdGYtcVFteW_mZE-20" value="LO &lt;br style=&quot;font-size: 16px;&quot;&gt;2.44GHz" style="text;html=1;align=center;verticalAlign=middle;resizable=0;points=[];autosize=1;strokeColor=none;fillColor=none;fontSize=16;fontStyle=1" parent="1" vertex="1">
          <mxGeometry x="150" y="328" width="90" height="50" as="geometry" />
        </mxCell>
        <mxCell id="MCohfSdGYtcVFteW_mZE-37" style="edgeStyle=none;rounded=0;orthogonalLoop=1;jettySize=auto;html=1;exitX=1;exitY=0.5;exitDx=0;exitDy=0;fontSize=16;fontStyle=1" parent="1" source="MCohfSdGYtcVFteW_mZE-28" target="MCohfSdGYtcVFteW_mZE-35" edge="1">
          <mxGeometry relative="1" as="geometry" />
        </mxCell>
        <mxCell id="MCohfSdGYtcVFteW_mZE-28" value="LPF" style="rounded=0;whiteSpace=wrap;html=1;fontSize=16;fontStyle=1" parent="1" vertex="1">
          <mxGeometry x="202" y="255" width="60" height="30" as="geometry" />
        </mxCell>
        <mxCell id="MCohfSdGYtcVFteW_mZE-38" style="edgeStyle=none;rounded=0;orthogonalLoop=1;jettySize=auto;html=1;exitX=1;exitY=0.5;exitDx=0;exitDy=0;fontSize=16;fontStyle=1" parent="1" source="MCohfSdGYtcVFteW_mZE-29" target="MCohfSdGYtcVFteW_mZE-36" edge="1">
          <mxGeometry relative="1" as="geometry" />
        </mxCell>
        <mxCell id="MCohfSdGYtcVFteW_mZE-29" value="LPF" style="rounded=0;whiteSpace=wrap;html=1;fontSize=16;fontStyle=1" parent="1" vertex="1">
          <mxGeometry x="202" y="440" width="60" height="30" as="geometry" />
        </mxCell>
        <mxCell id="MCohfSdGYtcVFteW_mZE-30" style="edgeStyle=none;rounded=0;orthogonalLoop=1;jettySize=auto;html=1;exitX=1;exitY=0.5;exitDx=0;exitDy=0;entryX=0;entryY=0.5;entryDx=0;entryDy=0;fontSize=16;fontStyle=1" parent="1" source="MCohfSdGYtcVFteW_mZE-6" target="MCohfSdGYtcVFteW_mZE-28" edge="1">
          <mxGeometry relative="1" as="geometry" />
        </mxCell>
        <mxCell id="MCohfSdGYtcVFteW_mZE-31" style="edgeStyle=none;rounded=0;orthogonalLoop=1;jettySize=auto;html=1;exitX=1;exitY=0.5;exitDx=0;exitDy=0;entryX=0;entryY=0.5;entryDx=0;entryDy=0;fontSize=16;fontStyle=1" parent="1" source="MCohfSdGYtcVFteW_mZE-12" target="MCohfSdGYtcVFteW_mZE-29" edge="1">
          <mxGeometry relative="1" as="geometry" />
        </mxCell>
        <mxCell id="MCohfSdGYtcVFteW_mZE-33" value="" style="shape=offPageConnector;whiteSpace=wrap;html=1;rotation=90;fontSize=16;fontStyle=1" parent="1" vertex="1">
          <mxGeometry x="302" y="245" width="40" height="50" as="geometry" />
        </mxCell>
        <mxCell id="MCohfSdGYtcVFteW_mZE-34" value="" style="shape=offPageConnector;whiteSpace=wrap;html=1;rotation=90;fontSize=16;fontStyle=1" parent="1" vertex="1">
          <mxGeometry x="302" y="430" width="40" height="50" as="geometry" />
        </mxCell>
        <mxCell id="MCohfSdGYtcVFteW_mZE-50" style="edgeStyle=orthogonalEdgeStyle;rounded=0;orthogonalLoop=1;jettySize=auto;html=1;entryX=0;entryY=0;entryDx=0;entryDy=0;fontSize=16;fontStyle=1" parent="1" source="MCohfSdGYtcVFteW_mZE-35" target="MCohfSdGYtcVFteW_mZE-47" edge="1">
          <mxGeometry relative="1" as="geometry">
            <Array as="points">
              <mxPoint x="369" y="270" />
              <mxPoint x="369" y="350" />
            </Array>
          </mxGeometry>
        </mxCell>
        <mxCell id="MCohfSdGYtcVFteW_mZE-35" value="&lt;font style=&quot;font-size: 13px;&quot;&gt;ADC&lt;/font&gt;" style="text;html=1;align=center;verticalAlign=middle;resizable=0;points=[];autosize=1;strokeColor=none;fillColor=none;fontSize=16;fontStyle=1" parent="1" vertex="1">
          <mxGeometry x="297" y="255" width="50" height="30" as="geometry" />
        </mxCell>
        <mxCell id="MCohfSdGYtcVFteW_mZE-51" style="edgeStyle=orthogonalEdgeStyle;rounded=0;orthogonalLoop=1;jettySize=auto;html=1;entryX=1;entryY=1;entryDx=0;entryDy=0;fontSize=16;fontStyle=1" parent="1" source="MCohfSdGYtcVFteW_mZE-36" target="MCohfSdGYtcVFteW_mZE-47" edge="1">
          <mxGeometry relative="1" as="geometry">
            <Array as="points">
              <mxPoint x="369" y="455" />
              <mxPoint x="369" y="380" />
            </Array>
          </mxGeometry>
        </mxCell>
        <mxCell id="MCohfSdGYtcVFteW_mZE-36" value="&lt;font style=&quot;font-size: 14px;&quot;&gt;ADC&lt;/font&gt;" style="text;html=1;align=center;verticalAlign=middle;resizable=0;points=[];autosize=1;strokeColor=none;fillColor=none;fontSize=16;fontStyle=1" parent="1" vertex="1">
          <mxGeometry x="297" y="440" width="50" height="30" as="geometry" />
        </mxCell>
        <mxCell id="MCohfSdGYtcVFteW_mZE-39" value="&lt;font face=&quot;Verdana&quot; style=&quot;font-size: 16px;&quot;&gt;I&lt;/font&gt;" style="text;html=1;align=center;verticalAlign=middle;resizable=0;points=[];autosize=1;strokeColor=none;fillColor=none;fontSize=16;fontStyle=1" parent="1" vertex="1">
          <mxGeometry x="261" y="242" width="30" height="30" as="geometry" />
        </mxCell>
        <mxCell id="MCohfSdGYtcVFteW_mZE-40" value="&lt;font face=&quot;Verdana&quot; style=&quot;font-size: 16px;&quot;&gt;Q&lt;/font&gt;" style="text;html=1;align=center;verticalAlign=middle;resizable=0;points=[];autosize=1;strokeColor=none;fillColor=none;fontSize=16;fontStyle=1" parent="1" vertex="1">
          <mxGeometry x="255" y="425" width="40" height="30" as="geometry" />
        </mxCell>
        <mxCell id="MCohfSdGYtcVFteW_mZE-41" value="100 MSps" style="text;html=1;align=center;verticalAlign=middle;resizable=0;points=[];autosize=1;strokeColor=none;fillColor=none;fontSize=16;fontStyle=1" parent="1" vertex="1">
          <mxGeometry x="277" y="298.45" width="100" height="30" as="geometry" />
        </mxCell>
        <mxCell id="MCohfSdGYtcVFteW_mZE-42" value="100 MSps" style="text;html=1;align=center;verticalAlign=middle;resizable=0;points=[];autosize=1;strokeColor=none;fillColor=none;fontSize=16;fontStyle=1" parent="1" vertex="1">
          <mxGeometry x="277" y="400" width="100" height="30" as="geometry" />
        </mxCell>
        <mxCell id="MCohfSdGYtcVFteW_mZE-43" value="" style="group;fontSize=16;fontStyle=1" parent="1" vertex="1" connectable="0">
          <mxGeometry x="129" y="320" width="40" height="40" as="geometry" />
        </mxCell>
        <mxCell id="MCohfSdGYtcVFteW_mZE-16" value="" style="ellipse;whiteSpace=wrap;html=1;aspect=fixed;fontSize=16;fontStyle=1" parent="MCohfSdGYtcVFteW_mZE-43" vertex="1">
          <mxGeometry width="40" height="40" as="geometry" />
        </mxCell>
        <mxCell id="MCohfSdGYtcVFteW_mZE-19" value="" style="pointerEvents=1;verticalLabelPosition=bottom;shadow=0;dashed=0;align=center;html=1;verticalAlign=top;shape=mxgraph.electrical.waveforms.sine_wave;fontSize=16;fontStyle=1" parent="MCohfSdGYtcVFteW_mZE-43" vertex="1">
          <mxGeometry x="2.5" y="8.449999999999989" width="35" height="23.09" as="geometry" />
        </mxCell>
        <mxCell id="MCohfSdGYtcVFteW_mZE-74" style="edgeStyle=orthogonalEdgeStyle;rounded=0;orthogonalLoop=1;jettySize=auto;html=1;exitX=1;exitY=0.5;exitDx=0;exitDy=0;entryX=0;entryY=0.5;entryDx=0;entryDy=0;fontSize=16;fontStyle=1" parent="1" source="MCohfSdGYtcVFteW_mZE-44" target="MCohfSdGYtcVFteW_mZE-73" edge="1">
          <mxGeometry relative="1" as="geometry">
            <mxPoint x="604.0000000000002" y="365" as="targetPoint" />
          </mxGeometry>
        </mxCell>
        <mxCell id="MCohfSdGYtcVFteW_mZE-46" value="" style="group;rotation=45;fontSize=16;fontStyle=1" parent="1" vertex="1" connectable="0">
          <mxGeometry x="354" y="350" width="30" height="30" as="geometry" />
        </mxCell>
        <mxCell id="MCohfSdGYtcVFteW_mZE-47" value="" style="ellipse;whiteSpace=wrap;html=1;aspect=fixed;rotation=45;fontSize=16;fontStyle=1" parent="MCohfSdGYtcVFteW_mZE-46" vertex="1">
          <mxGeometry width="30" height="30" as="geometry" />
        </mxCell>
        <mxCell id="MCohfSdGYtcVFteW_mZE-48" style="edgeStyle=none;rounded=0;orthogonalLoop=1;jettySize=auto;html=1;exitX=0;exitY=0;exitDx=0;exitDy=0;entryX=1;entryY=1;entryDx=0;entryDy=0;endArrow=none;endFill=0;fontSize=16;fontStyle=1" parent="MCohfSdGYtcVFteW_mZE-46" source="MCohfSdGYtcVFteW_mZE-47" target="MCohfSdGYtcVFteW_mZE-47" edge="1">
          <mxGeometry relative="1" as="geometry" />
        </mxCell>
        <mxCell id="MCohfSdGYtcVFteW_mZE-49" style="edgeStyle=none;rounded=0;orthogonalLoop=1;jettySize=auto;html=1;exitX=1;exitY=0;exitDx=0;exitDy=0;entryX=0;entryY=1;entryDx=0;entryDy=0;endArrow=none;endFill=0;fontSize=16;fontStyle=1" parent="MCohfSdGYtcVFteW_mZE-46" source="MCohfSdGYtcVFteW_mZE-47" target="MCohfSdGYtcVFteW_mZE-47" edge="1">
          <mxGeometry relative="1" as="geometry" />
        </mxCell>
        <mxCell id="MCohfSdGYtcVFteW_mZE-52" value="" style="group;fontSize=16;fontStyle=1" parent="1" vertex="1" connectable="0">
          <mxGeometry x="467" y="350" width="30" height="30" as="geometry" />
        </mxCell>
        <mxCell id="MCohfSdGYtcVFteW_mZE-53" value="" style="ellipse;whiteSpace=wrap;html=1;aspect=fixed;fontSize=16;fontStyle=1" parent="MCohfSdGYtcVFteW_mZE-52" vertex="1">
          <mxGeometry width="30" height="30" as="geometry" />
        </mxCell>
        <mxCell id="MCohfSdGYtcVFteW_mZE-54" style="edgeStyle=none;rounded=0;orthogonalLoop=1;jettySize=auto;html=1;exitX=0;exitY=0;exitDx=0;exitDy=0;entryX=1;entryY=1;entryDx=0;entryDy=0;endArrow=none;endFill=0;fontSize=16;fontStyle=1" parent="MCohfSdGYtcVFteW_mZE-52" source="MCohfSdGYtcVFteW_mZE-53" target="MCohfSdGYtcVFteW_mZE-53" edge="1">
          <mxGeometry relative="1" as="geometry" />
        </mxCell>
        <mxCell id="MCohfSdGYtcVFteW_mZE-55" style="edgeStyle=none;rounded=0;orthogonalLoop=1;jettySize=auto;html=1;exitX=1;exitY=0;exitDx=0;exitDy=0;entryX=0;entryY=1;entryDx=0;entryDy=0;endArrow=none;endFill=0;fontSize=16;fontStyle=1" parent="MCohfSdGYtcVFteW_mZE-52" source="MCohfSdGYtcVFteW_mZE-53" target="MCohfSdGYtcVFteW_mZE-53" edge="1">
          <mxGeometry relative="1" as="geometry" />
        </mxCell>
        <mxCell id="MCohfSdGYtcVFteW_mZE-56" style="edgeStyle=orthogonalEdgeStyle;rounded=0;orthogonalLoop=1;jettySize=auto;html=1;exitX=1;exitY=0;exitDx=0;exitDy=0;entryX=0;entryY=0.5;entryDx=0;entryDy=0;fontSize=16;fontStyle=1" parent="1" source="MCohfSdGYtcVFteW_mZE-47" target="MCohfSdGYtcVFteW_mZE-53" edge="1">
          <mxGeometry relative="1" as="geometry" />
        </mxCell>
        <mxCell id="MCohfSdGYtcVFteW_mZE-57" value="&lt;font face=&quot;Times New Roman&quot; style=&quot;font-size: 16px;&quot;&gt;I+jQ&lt;/font&gt;" style="text;html=1;align=center;verticalAlign=middle;resizable=0;points=[];autosize=1;strokeColor=none;fillColor=none;fontSize=16;fontStyle=1" parent="1" vertex="1">
          <mxGeometry x="400" y="370" width="60" height="30" as="geometry" />
        </mxCell>
        <mxCell id="MCohfSdGYtcVFteW_mZE-63" style="edgeStyle=orthogonalEdgeStyle;rounded=0;orthogonalLoop=1;jettySize=auto;html=1;exitX=1;exitY=0.5;exitDx=0;exitDy=0;entryX=0.5;entryY=0;entryDx=0;entryDy=0;fontSize=16;fontStyle=1" parent="1" source="MCohfSdGYtcVFteW_mZE-59" target="MCohfSdGYtcVFteW_mZE-53" edge="1">
          <mxGeometry relative="1" as="geometry">
            <Array as="points">
              <mxPoint x="482" y="313" />
              <mxPoint x="482" y="350" />
            </Array>
          </mxGeometry>
        </mxCell>
        <mxCell id="MCohfSdGYtcVFteW_mZE-59" value="F&lt;sub style=&quot;font-size: 16px;&quot;&gt;h&lt;/sub&gt; removing" style="rounded=0;whiteSpace=wrap;html=1;fontSize=16;fontStyle=1" parent="1" vertex="1">
          <mxGeometry x="399" y="291" width="79" height="42.68" as="geometry" />
        </mxCell>
        <mxCell id="MCohfSdGYtcVFteW_mZE-62" style="edgeStyle=orthogonalEdgeStyle;rounded=0;orthogonalLoop=1;jettySize=auto;html=1;exitX=1;exitY=0;exitDx=0;exitDy=0;entryX=0;entryY=0.5;entryDx=0;entryDy=0;fontSize=16;fontStyle=1" parent="1" source="MCohfSdGYtcVFteW_mZE-47" target="MCohfSdGYtcVFteW_mZE-59" edge="1">
          <mxGeometry relative="1" as="geometry">
            <Array as="points">
              <mxPoint x="389" y="365" />
              <mxPoint x="389" y="313" />
            </Array>
          </mxGeometry>
        </mxCell>
        <mxCell id="MCohfSdGYtcVFteW_mZE-64" style="edgeStyle=orthogonalEdgeStyle;rounded=0;orthogonalLoop=1;jettySize=auto;html=1;exitX=1;exitY=0.5;exitDx=0;exitDy=0;fontSize=16;fontStyle=1" parent="1" source="MCohfSdGYtcVFteW_mZE-53" target="MCohfSdGYtcVFteW_mZE-44" edge="1">
          <mxGeometry relative="1" as="geometry" />
        </mxCell>
        <mxCell id="MCohfSdGYtcVFteW_mZE-68" value="Downsampling" style="text;html=1;align=center;verticalAlign=middle;resizable=0;points=[];autosize=1;strokeColor=none;fillColor=none;fontSize=16;fontStyle=1" parent="1" vertex="1">
          <mxGeometry x="470" y="392" width="140" height="30" as="geometry" />
        </mxCell>
        <mxCell id="MCohfSdGYtcVFteW_mZE-80" style="edgeStyle=orthogonalEdgeStyle;rounded=0;orthogonalLoop=1;jettySize=auto;html=1;exitX=1;exitY=0.5;exitDx=0;exitDy=0;entryX=0;entryY=0.5;entryDx=0;entryDy=0;fontSize=16;fontStyle=1" parent="1" source="MCohfSdGYtcVFteW_mZE-73" target="MCohfSdGYtcVFteW_mZE-94" edge="1">
          <mxGeometry relative="1" as="geometry">
            <mxPoint x="667.9999999999998" y="364.9950000000001" as="targetPoint" />
            <mxPoint x="628.0000000000002" y="365" as="sourcePoint" />
          </mxGeometry>
        </mxCell>
        <mxCell id="MCohfSdGYtcVFteW_mZE-73" value="LPF" style="rounded=0;whiteSpace=wrap;html=1;fontSize=16;fontStyle=1" parent="1" vertex="1">
          <mxGeometry x="582" y="350" width="60" height="30" as="geometry" />
        </mxCell>
        <mxCell id="MCohfSdGYtcVFteW_mZE-77" value="Butterworth filter" style="text;html=1;align=center;verticalAlign=middle;resizable=0;points=[];autosize=1;strokeColor=none;fillColor=none;fontSize=16;fontStyle=1" parent="1" vertex="1">
          <mxGeometry x="538" y="315" width="150" height="30" as="geometry" />
        </mxCell>
        <mxCell id="MCohfSdGYtcVFteW_mZE-101" value="" style="edgeStyle=orthogonalEdgeStyle;rounded=0;orthogonalLoop=1;jettySize=auto;html=1;fontSize=16;fontStyle=1" parent="1" source="MCohfSdGYtcVFteW_mZE-93" target="MCohfSdGYtcVFteW_mZE-100" edge="1">
          <mxGeometry relative="1" as="geometry" />
        </mxCell>
        <mxCell id="MCohfSdGYtcVFteW_mZE-93" value="Base-band&lt;br style=&quot;font-size: 16px;&quot;&gt;IQ" style="shape=hexagon;perimeter=hexagonPerimeter2;whiteSpace=wrap;html=1;fixedSize=1;fontSize=16;fontStyle=1" parent="1" vertex="1">
          <mxGeometry x="73.5" y="502.28" width="101" height="57.45" as="geometry" />
        </mxCell>
        <mxCell id="MCohfSdGYtcVFteW_mZE-94" value="Base-band&lt;br style=&quot;font-size: 16px;&quot;&gt;IQ" style="shape=hexagon;perimeter=hexagonPerimeter2;whiteSpace=wrap;html=1;fixedSize=1;fontSize=16;fontStyle=1" parent="1" vertex="1">
          <mxGeometry x="672" y="335.39" width="100" height="59.23" as="geometry" />
        </mxCell>
        <mxCell id="MCohfSdGYtcVFteW_mZE-95" value="Complex value" style="text;html=1;align=center;verticalAlign=middle;resizable=0;points=[];autosize=1;strokeColor=none;fillColor=none;fontSize=16;fontStyle=1" parent="1" vertex="1">
          <mxGeometry x="652" y="400" width="140" height="30" as="geometry" />
        </mxCell>
        <mxCell id="MCohfSdGYtcVFteW_mZE-98" value="Complex value" style="text;html=1;align=center;verticalAlign=middle;resizable=0;points=[];autosize=1;strokeColor=none;fillColor=none;fontSize=16;fontStyle=1" parent="1" vertex="1">
          <mxGeometry x="54" y="569.22" width="140" height="30" as="geometry" />
        </mxCell>
        <mxCell id="MCohfSdGYtcVFteW_mZE-108" style="edgeStyle=orthogonalEdgeStyle;rounded=0;orthogonalLoop=1;jettySize=auto;html=1;exitX=1;exitY=0.5;exitDx=0;exitDy=0;fontSize=16;fontStyle=1;entryX=0;entryY=0;entryDx=0;entryDy=22.5;entryPerimeter=0;" parent="1" source="MCohfSdGYtcVFteW_mZE-100" target="3jCAR0RqgsVT-A8-6bMD-13" edge="1">
          <mxGeometry relative="1" as="geometry">
            <mxPoint x="660" y="550" as="targetPoint" />
          </mxGeometry>
        </mxCell>
        <mxCell id="MCohfSdGYtcVFteW_mZE-100" value="&lt;font style=&quot;border-color: var(--border-color);&quot; face=&quot;Times New Roman&quot;&gt;IQ&lt;/font&gt;&amp;nbsp;splitting" style="whiteSpace=wrap;html=1;fontSize=16;fontStyle=1" parent="1" vertex="1">
          <mxGeometry x="302" y="500.225" width="120" height="60" as="geometry" />
        </mxCell>
        <mxCell id="3jCAR0RqgsVT-A8-6bMD-2" value="" style="group;fontSize=16;fontStyle=1" parent="1" vertex="1" connectable="0">
          <mxGeometry x="520" y="345" width="40" height="40" as="geometry" />
        </mxCell>
        <mxCell id="MCohfSdGYtcVFteW_mZE-44" value="&lt;font style=&quot;font-size: 16px;&quot;&gt;&amp;nbsp; n&lt;/font&gt;" style="ellipse;whiteSpace=wrap;html=1;aspect=fixed;fontSize=16;fontStyle=1" parent="3jCAR0RqgsVT-A8-6bMD-2" vertex="1">
          <mxGeometry width="40" height="40" as="geometry" />
        </mxCell>
        <mxCell id="MCohfSdGYtcVFteW_mZE-65" value="" style="endArrow=classic;html=1;rounded=0;fontSize=16;fontStyle=1" parent="3jCAR0RqgsVT-A8-6bMD-2" edge="1">
          <mxGeometry width="50" height="50" relative="1" as="geometry">
            <mxPoint x="13" y="7.5" as="sourcePoint" />
            <mxPoint x="13" y="32.5" as="targetPoint" />
          </mxGeometry>
        </mxCell>
        <mxCell id="3jCAR0RqgsVT-A8-6bMD-14" value="CV-CNN" style="shape=cube;whiteSpace=wrap;html=1;boundedLbl=1;backgroundOutline=1;darkOpacity=0.05;darkOpacity2=0.1;fontSize=16;fontStyle=1" parent="1" vertex="1">
          <mxGeometry x="623" y="596.22" width="100" height="50" as="geometry" />
        </mxCell>
        <mxCell id="3jCAR0RqgsVT-A8-6bMD-13" value="RV-CNN" style="shape=cube;whiteSpace=wrap;html=1;boundedLbl=1;backgroundOutline=1;darkOpacity=0.05;darkOpacity2=0.1;fontSize=16;fontStyle=1" parent="1" vertex="1">
          <mxGeometry x="674" y="507.45000000000005" width="100" height="65" as="geometry" />
        </mxCell>
        <mxCell id="3jCAR0RqgsVT-A8-6bMD-22" style="edgeStyle=orthogonalEdgeStyle;rounded=0;orthogonalLoop=1;jettySize=auto;html=1;exitX=1;exitY=0.5;exitDx=0;exitDy=0;entryX=0;entryY=0;entryDx=0;entryDy=15;entryPerimeter=0;" parent="1" source="MCohfSdGYtcVFteW_mZE-93" target="3jCAR0RqgsVT-A8-6bMD-14" edge="1">
          <mxGeometry relative="1" as="geometry">
            <Array as="points">
              <mxPoint x="250" y="531" />
              <mxPoint x="250" y="611" />
            </Array>
          </mxGeometry>
        </mxCell>
        <mxCell id="3jCAR0RqgsVT-A8-6bMD-23" value="&lt;font style=&quot;font-size: 16px;&quot;&gt;RFFI&lt;/font&gt;" style="text;html=1;align=center;verticalAlign=middle;resizable=0;points=[];autosize=1;strokeColor=none;fillColor=none;" parent="1" vertex="1">
          <mxGeometry x="687" y="483.28000000000003" width="60" height="30" as="geometry" />
        </mxCell>
        <mxCell id="3jCAR0RqgsVT-A8-6bMD-24" value="&lt;font style=&quot;font-size: 16px;&quot;&gt;RFFI&lt;/font&gt;" style="text;html=1;align=center;verticalAlign=middle;resizable=0;points=[];autosize=1;strokeColor=none;fillColor=none;" parent="1" vertex="1">
          <mxGeometry x="640" y="572.45" width="60" height="30" as="geometry" />
        </mxCell>
        <mxCell id="VQf5QNt3yhHVSwAbH0Hf-1" value="" style="group" vertex="1" connectable="0" parent="1">
          <mxGeometry x="467" y="453.28" width="127.78999999999996" height="90" as="geometry" />
        </mxCell>
        <mxCell id="3jCAR0RqgsVT-A8-6bMD-8" value="2xn" style="text;html=1;align=center;verticalAlign=middle;resizable=0;points=[];autosize=1;strokeColor=none;fillColor=none;fontSize=16;fontStyle=1" parent="VQf5QNt3yhHVSwAbH0Hf-1" vertex="1">
          <mxGeometry x="94.99999999999997" y="48" width="50" height="30" as="geometry" />
        </mxCell>
        <mxCell id="MCohfSdGYtcVFteW_mZE-104" value="&lt;font style=&quot;font-size: 16px;&quot;&gt;(&lt;/font&gt;" style="text;html=1;align=center;verticalAlign=middle;resizable=0;points=[];autosize=1;strokeColor=none;fillColor=none;fontSize=16;fontStyle=1" parent="VQf5QNt3yhHVSwAbH0Hf-1" vertex="1">
          <mxGeometry y="32.22000000000003" width="30" height="30" as="geometry" />
        </mxCell>
        <mxCell id="MCohfSdGYtcVFteW_mZE-96" value="&lt;font face=&quot;Times New Roman&quot; style=&quot;font-size: 16px;&quot;&gt;I&lt;sub style=&quot;font-size: 16px;&quot;&gt;1&amp;nbsp;&amp;nbsp;&lt;/sub&gt;, I&lt;sub style=&quot;font-size: 16px;&quot;&gt;2&lt;/sub&gt;,&amp;nbsp; ...&lt;br style=&quot;font-size: 16px;&quot;&gt;&lt;/font&gt;Q&lt;sub style=&quot;border-color: var(--border-color); font-family: &amp;quot;Times New Roman&amp;quot;; font-size: 16px;&quot;&gt;1&lt;/sub&gt;&lt;span style=&quot;font-family: &amp;quot;Times New Roman&amp;quot;; font-size: 16px;&quot;&gt;, Q&lt;/span&gt;&lt;sub style=&quot;border-color: var(--border-color); font-family: &amp;quot;Times New Roman&amp;quot;; font-size: 16px;&quot;&gt;2&lt;/sub&gt;&lt;span style=&quot;font-family: &amp;quot;Times New Roman&amp;quot;; font-size: 16px;&quot;&gt;, ...&lt;/span&gt;" style="text;html=1;strokeColor=none;fillColor=none;align=center;verticalAlign=middle;whiteSpace=wrap;rounded=0;fontSize=16;fontStyle=1" parent="VQf5QNt3yhHVSwAbH0Hf-1" vertex="1">
          <mxGeometry x="17" y="32.950000000000045" width="88.42105263157897" height="30" as="geometry" />
        </mxCell>
        <mxCell id="MCohfSdGYtcVFteW_mZE-105" value="&lt;span style=&quot;font-size: 16px;&quot;&gt;)&lt;/span&gt;" style="text;html=1;align=center;verticalAlign=middle;resizable=0;points=[];autosize=1;strokeColor=none;fillColor=none;fontSize=16;fontStyle=1" parent="VQf5QNt3yhHVSwAbH0Hf-1" vertex="1">
          <mxGeometry x="89.78947368421052" y="32.950000000000045" width="30" height="30" as="geometry" />
        </mxCell>
        <mxCell id="VQf5QNt3yhHVSwAbH0Hf-3" value="" style="group" vertex="1" connectable="0" parent="1">
          <mxGeometry x="57.58" y="584.83" width="480.42" height="72.77999999999997" as="geometry" />
        </mxCell>
        <mxCell id="3jCAR0RqgsVT-A8-6bMD-4" value="&lt;font style=&quot;font-size: 16px;&quot;&gt;(&lt;/font&gt;" style="text;html=1;align=center;verticalAlign=middle;resizable=0;points=[];autosize=1;strokeColor=none;fillColor=none;fontSize=16;fontStyle=1" parent="VQf5QNt3yhHVSwAbH0Hf-3" vertex="1">
          <mxGeometry x="270" y="23.78" width="30" height="30" as="geometry" />
        </mxCell>
        <mxCell id="3jCAR0RqgsVT-A8-6bMD-7" value="&lt;span style=&quot;font-size: 16px;&quot;&gt;)&lt;/span&gt;" style="text;html=1;align=center;verticalAlign=middle;resizable=0;points=[];autosize=1;strokeColor=none;fillColor=none;fontSize=16;fontStyle=1" parent="VQf5QNt3yhHVSwAbH0Hf-3" vertex="1">
          <mxGeometry x="432.4213373597929" y="24.78" width="30" height="30" as="geometry" />
        </mxCell>
        <mxCell id="3jCAR0RqgsVT-A8-6bMD-6" value="&lt;font face=&quot;Times New Roman&quot; style=&quot;font-size: 16px;&quot;&gt;I&lt;sub style=&quot;font-size: 16px;&quot;&gt;1 + j&lt;/sub&gt;&lt;/font&gt;Q&lt;sub style=&quot;border-color: var(--border-color); font-family: &amp;quot;Times New Roman&amp;quot;; font-size: 16px;&quot;&gt;1&lt;/sub&gt;&lt;font face=&quot;Times New Roman&quot; style=&quot;font-size: 16px;&quot;&gt;,&amp;nbsp; I&lt;sub style=&quot;font-size: 16px;&quot;&gt;2 + j&lt;/sub&gt;&lt;/font&gt;&lt;span style=&quot;font-family: &amp;quot;Times New Roman&amp;quot;; font-size: 16px;&quot;&gt;Q&lt;/span&gt;&lt;sub style=&quot;border-color: var(--border-color); font-family: &amp;quot;Times New Roman&amp;quot;; font-size: 16px;&quot;&gt;2&lt;/sub&gt;&lt;span style=&quot;font-family: &amp;quot;Times New Roman&amp;quot;; font-size: 16px;&quot;&gt;, ...&lt;/span&gt;" style="text;html=1;strokeColor=none;fillColor=none;align=center;verticalAlign=middle;whiteSpace=wrap;rounded=0;fontSize=16;fontStyle=1" parent="VQf5QNt3yhHVSwAbH0Hf-3" vertex="1">
          <mxGeometry x="277" y="24.779999999999973" width="178.42" height="30" as="geometry" />
        </mxCell>
        <mxCell id="3jCAR0RqgsVT-A8-6bMD-9" value="1xn" style="text;html=1;align=center;verticalAlign=middle;resizable=0;points=[];autosize=1;strokeColor=none;fillColor=none;fontSize=16;fontStyle=1" parent="VQf5QNt3yhHVSwAbH0Hf-3" vertex="1">
          <mxGeometry x="440" y="31.779999999999973" width="50" height="30" as="geometry" />
        </mxCell>
      </root>
    </mxGraphModel>
  </diagram>
</mxfile>
